<?xml version="1.0" standalone="no"?>
<!DOCTYPE svg PUBLIC "-//W3C//DTD SVG 20010904//EN"
 "http://www.w3.org/TR/2001/REC-SVG-20010904/DTD/svg10.dtd">
<svg version="1.0" xmlns="http://www.w3.org/2000/svg"
 width="4253.000000pt" height="3388.000000pt" viewBox="0 0 4253.000000 3388.000000"
 preserveAspectRatio="xMidYMid meet">

<g transform="translate(0.000000,3388.000000) scale(0.100000,-0.100000)"
fill="#000000" stroke="none">
<path d="M30220 28698 c-74 -51 -75 -52 -78 -321 l-3 -242 -53 -55 c-30 -30
-82 -89 -116 -130 -34 -41 -105 -122 -159 -180 -159 -172 -533 -631 -706 -866
-136 -185 -361 -503 -409 -579 -32 -49 -84 -132 -118 -184 -57 -90 -138 -229
-216 -371 -20 -36 -51 -92 -69 -125 -52 -94 -237 -472 -271 -555 -17 -41 -50
-127 -72 -190 -23 -63 -48 -130 -56 -148 -8 -18 -14 -41 -14 -52 0 -10 -4 -21
-10 -25 -5 -3 -17 -31 -26 -63 -10 -31 -32 -104 -51 -161 -18 -58 -38 -130
-44 -160 -13 -72 -23 -116 -49 -221 -35 -144 -54 -271 -76 -505 -20 -226 -9
-538 26 -701 6 -28 12 -62 13 -75 3 -27 32 -124 84 -279 19 -58 36 -109 37
-115 31 -114 155 -303 280 -427 31 -30 56 -58 56 -62 0 -9 78 -79 108 -96 15
-8 42 -26 61 -39 47 -34 162 -88 248 -117 139 -47 199 -55 435 -61 188 -5 244
-3 325 12 262 46 558 136 741 227 56 28 105 49 107 46 3 -2 -77 -62 -178 -133
-881 -620 -1584 -1247 -2269 -2022 -166 -187 -213 -235 -368 -363 -29 -25
-107 -92 -173 -150 -66 -58 -138 -120 -161 -138 -69 -56 -375 -349 -671 -643
-433 -429 -614 -619 -791 -825 -185 -216 -270 -323 -400 -504 -143 -198 -300
-442 -410 -635 -32 -55 -72 -125 -90 -155 -120 -205 -345 -687 -463 -995 -48
-124 -49 -128 -85 -207 -15 -32 -39 -92 -55 -135 -16 -43 -37 -96 -46 -118
-10 -22 -21 -49 -26 -60 -149 -359 -246 -554 -424 -850 -68 -113 -379 -582
-499 -753 -56 -79 -117 -167 -137 -196 -52 -78 -172 -248 -249 -351 -36 -49
-87 -119 -113 -155 -25 -36 -50 -69 -55 -75 -4 -5 -11 -17 -15 -25 -4 -8 -27
-42 -52 -75 -25 -33 -64 -87 -86 -120 -22 -32 -43 -62 -47 -65 -4 -3 -25 -32
-47 -65 -21 -33 -59 -86 -82 -117 -24 -31 -43 -61 -43 -66 0 -6 -4 -12 -9 -14
-9 -3 -246 -369 -316 -487 -5 -9 -20 -31 -32 -48 -13 -17 -23 -34 -23 -38 0
-3 -11 -21 -24 -38 -13 -18 -32 -48 -43 -67 -10 -19 -31 -54 -46 -77 -15 -24
-27 -47 -27 -53 0 -5 -4 -10 -10 -10 -5 0 -10 -4 -10 -9 0 -6 -13 -30 -30 -54
-16 -25 -30 -48 -30 -52 0 -3 -11 -21 -25 -39 -14 -18 -25 -40 -25 -49 0 -8
-6 -22 -12 -29 -14 -14 -23 -30 -81 -138 -19 -36 -60 -112 -91 -170 -31 -58
-59 -115 -63 -128 -3 -12 -9 -25 -14 -28 -5 -3 -9 -13 -9 -23 0 -9 -11 -39
-24 -67 -13 -27 -29 -67 -36 -89 -6 -22 -21 -60 -33 -85 -25 -54 -29 -67 -52
-145 -10 -33 -24 -74 -32 -92 -7 -17 -13 -38 -13 -47 0 -9 -4 -24 -10 -34 -11
-20 -34 -103 -32 -114 1 -4 -5 -25 -13 -45 -8 -21 -19 -78 -24 -128 -6 -49
-17 -130 -25 -180 -7 -49 -15 -144 -16 -210 -1 -66 -3 -138 -4 -160 -4 -42 6
-120 29 -245 8 -41 17 -104 21 -140 9 -93 12 -111 23 -147 5 -18 7 -33 5 -33
-7 0 27 -61 44 -78 6 -7 12 -24 12 -37 0 -27 40 -115 51 -115 4 0 10 -13 14
-29 3 -16 15 -37 25 -46 10 -9 17 -22 14 -28 -2 -7 10 -27 26 -46 17 -18 30
-40 30 -47 0 -8 5 -14 10 -14 6 0 10 -7 10 -16 0 -8 4 -13 9 -10 11 7 33 -18
24 -28 -4 -3 3 -15 15 -26 12 -12 22 -28 22 -36 0 -11 6 -14 16 -10 11 4 15 2
11 -7 -3 -8 8 -27 23 -44 16 -17 26 -34 23 -37 -4 -3 1 -6 10 -6 9 0 19 -11
23 -25 3 -14 11 -25 18 -25 12 0 42 -40 38 -52 -1 -5 5 -8 13 -8 8 0 15 -6 15
-12 1 -19 63 -84 88 -92 12 -4 22 -12 22 -18 0 -12 47 -58 58 -58 4 0 16 -14
26 -31 11 -18 23 -28 32 -25 8 3 14 2 14 -2 0 -5 27 -36 60 -70 33 -35 60 -66
60 -70 0 -4 14 -15 30 -24 18 -10 30 -25 30 -38 0 -11 5 -20 10 -20 6 0 10 -8
10 -17 0 -10 7 -27 15 -37 8 -11 15 -30 15 -43 0 -13 6 -23 13 -23 9 0 14 -12
14 -32 0 -18 5 -34 11 -36 7 -2 12 -15 12 -28 0 -13 6 -24 13 -24 8 0 8 -3 1
-8 -10 -7 -14 -102 -4 -102 3 0 5 -61 5 -135 0 -74 -3 -135 -6 -135 -4 0 -3
-16 1 -35 4 -19 5 -37 1 -39 -11 -7 -3 -201 8 -201 2 0 5 -34 7 -75 3 -41 10
-78 16 -81 7 -4 12 -29 13 -56 3 -70 16 -166 25 -183 4 -8 6 -20 3 -26 -2 -6
2 -24 8 -40 7 -16 12 -32 11 -37 -1 -4 2 -7 7 -7 12 0 32 -85 25 -105 -4 -8 3
-42 15 -74 17 -48 26 -85 30 -133 1 -4 8 -5 16 -2 8 4 15 1 15 -6 0 -7 14 -42
30 -77 17 -34 30 -68 30 -73 0 -6 5 -10 10 -10 6 0 10 -13 10 -29 0 -16 7 -34
15 -41 9 -7 14 -19 11 -27 -3 -8 -1 -11 4 -8 6 3 10 -3 10 -15 0 -11 7 -23 15
-26 8 -4 13 -10 10 -14 -3 -4 1 -10 9 -13 12 -5 24 -41 29 -89 1 -10 5 -18 10
-18 4 0 6 -4 3 -9 -3 -4 7 -18 23 -30 16 -12 36 -40 46 -62 17 -38 29 -47 38
-31 2 4 3 2 1 -3 -1 -6 4 -19 12 -29 7 -11 11 -23 8 -27 -3 -5 1 -9 9 -9 8 0
20 -7 27 -15 8 -9 8 -15 2 -15 -6 0 27 -39 74 -87 46 -47 84 -92 84 -100 0 -7
5 -13 10 -13 6 0 33 -20 59 -45 26 -25 52 -45 57 -45 5 0 23 -12 39 -28 17
-15 55 -40 85 -56 30 -16 64 -39 76 -52 12 -13 23 -21 26 -19 3 3 20 0 39 -7
34 -12 34 -12 9 -20 -21 -6 -20 -7 7 -3 31 4 51 -3 103 -37 14 -9 41 -19 60
-23 35 -8 76 -30 95 -51 6 -6 33 -17 60 -24 28 -7 56 -18 63 -23 7 -5 29 -11
49 -12 20 -1 41 -9 47 -16 6 -8 19 -13 29 -11 29 6 69 -7 61 -20 -4 -7 -3 -8
4 -4 7 4 51 0 99 -8 130 -23 275 -48 298 -51 11 -2 20 -4 20 -5 0 -8 390 -14
403 -6 5 3 62 7 128 11 231 11 300 16 419 31 66 9 138 17 160 19 50 4 99 13
149 26 22 6 59 11 83 11 23 0 43 3 43 8 0 4 26 11 57 15 31 4 67 11 79 15 12
5 42 12 65 15 24 3 80 15 124 26 115 29 156 38 190 44 69 11 221 49 350 90 44
13 112 32 150 40 39 9 84 20 100 26 17 5 72 23 124 40 51 17 102 31 112 32 10
1 19 4 19 8 0 4 23 12 52 18 28 7 56 15 62 20 13 10 242 82 267 84 11 1 19 5
19 9 0 4 7 8 15 8 15 0 73 20 220 74 84 31 85 31 85 6 0 -36 38 -97 75 -120
55 -34 105 -28 289 34 462 156 851 384 1193 699 75 69 111 92 228 142 17 7 57
24 90 38 161 68 325 141 485 214 131 61 1253 626 1405 708 155 84 361 194 475
253 69 35 170 90 225 122 55 31 138 76 185 100 47 23 117 61 155 85 84 50 123
72 324 182 170 93 436 245 581 333 212 128 296 166 475 215 777 213 1412 523
2020 982 1077 815 1898 2046 2280 3418 344 1236 317 2600 -74 3783 -479 1444
-1465 2572 -2836 3241 -593 290 -1193 462 -1875 536 -202 22 -693 31 -916 16
-611 -41 -1226 -181 -1779 -405 l-110 -44 -3 1251 c-1 689 0 1257 2 1262 2 6
74 55 161 110 419 268 487 317 681 494 240 221 546 590 756 916 123 190 242
401 349 620 249 510 389 954 466 1480 26 175 26 702 0 865 -27 173 -64 330
-112 475 -303 918 -1094 1609 -2298 2009 -156 52 -199 56 -247 24z m373 -394
c154 -58 403 -170 527 -237 851 -457 1324 -1079 1451 -1909 18 -115 22 -188
23 -378 0 -239 -8 -337 -45 -559 -99 -595 -383 -1281 -777 -1876 -280 -422
-644 -820 -947 -1037 -53 -38 -283 -182 -319 -199 -11 -6 5 13 37 43 122 111
238 230 264 270 16 22 31 46 35 52 39 59 132 238 177 341 12 28 26 58 31 68
21 37 28 53 40 92 6 22 20 58 30 80 29 61 43 98 46 115 1 8 7 29 14 45 7 17
12 40 11 51 -1 12 5 28 13 37 9 8 15 26 15 39 -1 13 3 35 9 51 6 15 9 27 6 27
-4 0 -2 6 4 13 6 7 12 28 14 45 1 18 6 32 10 32 4 0 7 3 6 8 -2 8 21 118 30
142 3 8 7 29 9 45 2 17 11 68 19 115 9 47 17 94 19 105 2 11 9 49 15 85 7 36
13 77 14 93 0 15 4 27 8 27 3 0 6 24 7 53 0 28 0 75 1 102 0 28 8 86 17 130
15 70 17 141 17 545 -1 455 -5 589 -24 700 -5 30 -12 96 -15 145 -4 50 -10 95
-13 100 -4 6 -8 28 -8 50 -1 22 -5 51 -8 65 -7 26 -9 42 -21 142 -3 32 -11 60
-16 63 -5 4 -9 18 -8 33 1 26 -11 87 -46 247 -9 39 -17 77 -19 85 -2 8 -5 22
-8 30 -12 32 -32 106 -34 123 -1 9 -2 18 -4 20 -1 1 -3 11 -5 22 -3 20 -38
124 -55 160 -5 11 -20 56 -34 100 -14 45 -39 111 -55 149 -17 37 -33 81 -36
98 -5 28 -10 39 -34 86 -6 12 -21 47 -32 78 -20 54 -47 106 -184 369 -71 136
-241 417 -274 451 -18 20 -41 58 -41 68 0 12 23 5 143 -40z m-444 -8041 c-1
-676 -5 -1212 -9 -1193 -19 81 -30 159 -31 220 -1 36 -6 76 -11 90 -18 45 -11
1165 8 1490 19 318 26 559 15 492 -4 -23 -13 -48 -19 -54 -16 -16 -15 -55 1
-61 8 -3 4 -14 -14 -33 -15 -16 -29 -40 -32 -54 -3 -14 -17 -70 -30 -125 -14
-55 -33 -136 -42 -180 -9 -44 -32 -145 -51 -225 -19 -80 -50 -215 -70 -300
-71 -303 -118 -417 -191 -457 -33 -19 -47 -16 -73 12 -31 33 -40 115 -24 215
24 148 151 488 294 785 45 94 84 182 87 198 3 15 9 27 14 27 5 0 9 8 9 19 0
10 10 33 23 52 12 19 28 54 35 79 14 49 70 161 85 171 5 4 10 18 10 33 1 14 5
26 10 26 4 0 7 -552 6 -1227z m2981 -933 c1082 -86 2122 -514 2980 -1228 227
-189 524 -495 717 -739 906 -1142 1311 -2711 1112 -4313 -110 -885 -401 -1722
-867 -2495 -613 -1017 -1489 -1812 -2502 -2272 -19 -9 -43 -20 -52 -24 -130
-64 -485 -195 -638 -236 -302 -81 -391 -99 -512 -106 -10 -1 -18 -4 -18 -7 0
-3 -16 -4 -35 -2 -36 4 -50 -13 -17 -20 9 -3 -3 -5 -28 -5 -33 -1 -40 1 -25 7
18 8 18 9 2 9 -10 1 -28 -4 -39 -10 -16 -9 -23 -8 -29 2 -5 8 -9 9 -9 3 0 -7
-16 -10 -42 -8 -24 1 -74 3 -111 3 -61 1 -71 4 -93 29 -28 29 -44 34 -56 17
-4 -5 -8 -1 -8 10 0 16 -2 17 -10 5 -5 -8 -12 -12 -15 -8 -12 11 10 38 46 57
19 10 35 27 37 40 2 13 11 21 23 21 13 0 18 4 13 12 -4 7 -3 8 4 4 6 -4 19 -3
29 3 36 18 133 42 145 35 7 -4 8 -3 4 4 -5 8 0 12 13 12 10 0 26 3 35 6 11 4
16 1 16 -10 0 -9 5 -16 10 -16 9 0 14 14 11 33 0 4 7 7 17 7 10 0 27 6 37 14
11 8 25 12 32 9 7 -3 19 0 27 6 7 6 17 7 21 3 5 -4 5 2 1 13 -6 16 -5 18 5 7
15 -14 49 -16 49 -3 0 12 35 21 110 27 36 3 67 9 68 15 2 5 7 7 12 4 9 -6 152
25 160 34 11 13 51 31 70 31 12 0 38 9 60 20 22 11 51 20 65 20 14 0 25 5 25
10 0 6 -5 10 -12 10 -6 0 -9 3 -6 6 4 3 15 1 26 -5 11 -6 23 -6 28 -1 5 4 44
20 87 34 43 15 88 35 99 46 12 11 30 20 40 20 10 0 18 4 18 8 0 4 21 14 46 21
25 8 48 20 51 27 3 8 11 14 19 14 8 0 14 5 14 12 0 9 3 9 12 0 9 -9 14 -6 23
11 6 12 17 21 23 19 7 -1 12 4 12 12 0 8 9 18 20 21 11 4 18 10 16 14 -3 4 10
15 29 24 19 9 35 23 35 31 0 7 8 16 19 19 10 2 27 23 37 46 19 43 28 50 38 29
3 -7 3 -3 0 9 -4 17 -2 21 8 18 8 -3 23 4 34 16 18 21 18 22 0 16 -18 -7 -18
-6 -1 20 10 16 27 34 37 41 10 7 18 22 18 33 0 11 7 22 15 25 8 3 17 22 21 42
4 21 11 40 16 43 5 3 4 17 -2 33 -13 36 8 59 45 50 20 -5 25 -3 25 13 0 10 4
23 9 29 6 5 6 28 -1 59 -8 36 -7 58 1 82 7 18 9 38 6 44 -4 6 3 13 15 16 15 4
20 11 17 24 -3 10 1 26 8 36 7 10 18 43 25 73 7 30 19 67 26 82 17 33 18 52 3
42 -8 -4 -9 0 -4 15 5 16 2 21 -10 21 -11 0 -15 6 -11 18 3 9 2 23 -3 31 -13
20 -2 41 20 41 14 0 19 7 19 25 0 19 -5 25 -21 25 -11 0 -17 5 -14 10 11 17 7
141 -5 154 -5 8 -7 21 -4 30 4 11 -6 28 -31 51 -20 19 -34 35 -31 35 3 0 2 10
-3 23 -5 13 -5 30 0 39 10 18 -12 48 -36 48 -16 0 -26 25 -19 45 4 9 -1 18
-12 22 -16 6 -16 7 2 14 18 7 18 8 0 8 -15 1 -17 6 -12 31 3 19 1 30 -5 30 -6
0 -8 7 -5 15 3 9 2 23 -3 33 -26 52 -34 74 -35 101 -1 16 -3 28 -5 26 -2 -2
-10 3 -19 12 -12 12 -13 19 -4 33 8 13 8 20 1 22 -14 5 -39 75 -39 111 0 36
-16 67 -35 67 -10 0 -15 10 -15 30 0 19 -6 33 -16 37 -12 5 -13 7 -2 14 10 7
10 14 -5 38 -9 16 -17 42 -17 58 -1 15 -7 39 -15 53 -8 14 -14 37 -15 52 0 15
-5 30 -10 33 -6 4 -8 21 -4 41 5 30 4 34 -15 34 -14 0 -19 5 -14 16 6 16 -12
58 -34 82 -7 7 -13 20 -13 28 0 9 -7 22 -15 30 -14 14 -18 31 -30 126 -3 26
-13 54 -21 62 -8 8 -14 21 -14 30 0 8 -5 18 -11 22 -8 4 -7 9 2 15 9 5 10 9 3
9 -7 0 -12 10 -12 23 0 43 -39 203 -56 229 -11 17 -15 35 -11 48 4 13 0 31 -9
45 -9 13 -16 41 -16 60 0 20 -5 45 -11 57 -9 17 -19 89 -23 159 0 10 -7 14
-17 12 -12 -4 -18 5 -23 39 -4 24 -10 37 -14 31 -4 -7 -7 13 -5 42 1 30 -3 57
-8 61 -5 3 -7 10 -4 15 4 5 -1 12 -11 16 -16 6 -15 7 2 20 17 12 17 13 -2 14
-10 0 -13 3 -6 6 17 7 15 32 -3 39 -10 4 -12 15 -8 36 3 16 2 33 -4 37 -12 8
-43 102 -54 161 -4 25 -13 68 -19 95 -6 28 -13 70 -15 94 -3 25 -9 47 -14 51
-6 3 -12 19 -15 35 -14 77 -18 88 -27 74 -6 -9 -9 2 -9 32 0 25 -3 49 -7 53
-4 3 -8 12 -9 19 -1 7 -5 26 -8 42 -8 36 -15 104 -17 168 -1 26 -6 50 -11 53
-5 3 -6 15 -2 26 5 17 3 20 -12 16 -14 -4 -19 1 -20 16 -1 21 -20 159 -29 206
-2 14 -6 41 -8 60 -6 51 -17 81 -28 75 -5 -4 -9 1 -9 10 0 9 -4 13 -10 10 -5
-3 -10 2 -11 12 -8 190 -30 306 -57 296 -12 -5 -14 -1 -9 17 4 14 1 31 -7 40
-17 19 -39 144 -27 148 5 2 -4 17 -19 33 -20 23 -29 45 -33 82 -3 29 -9 81
-13 115 -4 37 -12 66 -20 69 -7 2 -10 11 -7 18 2 8 -7 29 -21 48 -21 27 -26
45 -26 90 0 31 -5 59 -11 63 -6 3 -9 15 -6 25 3 11 2 17 -3 14 -9 -6 -20 29
-20 68 0 16 -4 26 -10 22 -6 -3 -10 4 -10 16 0 23 -11 64 -36 129 -7 19 -15
52 -19 73 -3 20 -11 37 -17 37 -5 0 -8 7 -4 15 3 8 1 15 -3 15 -5 0 -12 23
-16 50 -4 28 -11 50 -15 50 -5 0 -12 16 -16 35 -3 19 -10 35 -15 35 -14 0 -30
48 -36 105 -3 27 -13 71 -23 96 -11 26 -16 50 -13 53 4 3 -1 6 -9 6 -11 0 -19
19 -29 63 -7 34 -14 70 -14 79 0 10 -6 23 -13 30 -7 7 -12 22 -12 35 0 12 -7
26 -15 30 -14 8 -44 92 -49 140 -1 13 -10 31 -19 41 -13 14 -14 21 -5 30 9 9
8 12 -6 12 -12 0 -16 5 -12 18 4 12 -1 26 -14 37 -11 10 -20 22 -20 27 0 5 -9
28 -20 50 -11 23 -20 48 -20 55 0 7 -4 13 -10 13 -5 0 -10 10 -10 23 0 13 -4
27 -9 33 -4 5 -19 39 -31 76 -13 37 -26 66 -28 63 -6 -5 -72 126 -72 143 0 7
-4 11 -9 8 -5 -4 -17 20 -27 51 -10 32 -26 72 -35 90 -10 17 -15 34 -11 39 4
4 2 4 -4 1 -7 -4 -17 0 -24 8 -7 8 -9 15 -5 15 3 0 -3 15 -14 34 -12 18 -21
41 -21 50 0 10 -4 14 -10 11 -5 -3 -10 0 -10 8 0 8 -11 31 -25 51 -14 20 -25
43 -25 51 0 7 -11 26 -24 42 -13 15 -25 33 -26 38 -6 24 -22 60 -33 73 -6 8
-12 21 -13 30 -2 8 -10 19 -18 24 -9 5 -16 16 -16 25 0 8 -14 33 -31 55 -17
21 -29 41 -26 44 3 3 -6 17 -19 31 -13 14 -24 31 -24 37 -1 16 -36 56 -50 56
-7 0 -10 6 -7 13 3 8 -12 30 -33 50 -21 19 -41 44 -44 55 -4 11 -15 27 -26 37
-11 10 -20 22 -20 27 0 5 -16 24 -35 44 -19 19 -35 41 -35 48 0 7 -16 24 -35
37 -19 13 -38 32 -41 41 -3 10 -18 27 -35 38 -16 12 -29 27 -29 34 0 11 -23
32 -69 66 -4 3 -13 19 -20 37 -7 17 -28 42 -46 55 -19 12 -31 27 -28 32 3 5 2
6 -4 3 -11 -7 -83 39 -83 53 0 15 -101 113 -142 139 -21 12 -38 27 -38 32 0 4
-20 18 -45 29 -25 11 -45 27 -45 35 0 8 -8 15 -18 15 -9 0 -30 14 -45 30 -16
17 -37 30 -48 30 -10 0 -19 6 -19 13 0 6 -19 21 -43 32 -23 11 -57 35 -75 53
-18 17 -39 32 -46 32 -8 0 -19 7 -26 15 -7 8 -21 15 -31 15 -10 0 -39 11 -65
25 -26 14 -53 25 -60 25 -7 0 -14 4 -16 10 -3 8 -82 32 -148 44 -14 2 -47 10
-75 16 -27 7 -99 13 -160 14 -98 1 -114 -2 -148 -21 -43 -26 -47 -27 -47 -13
0 14 75 50 260 123 577 227 1150 349 1795 381 106 5 474 -3 615 -14z m-2980
-646 c0 -8 -5 -12 -10 -9 -6 4 -8 11 -5 16 9 14 15 11 15 -7z m-50 -19 c0 -2
-10 -9 -22 -15 -22 -11 -22 -10 -4 4 21 17 26 19 26 11z m-1050 -339 c0 -2 -8
-10 -17 -17 -16 -13 -17 -12 -4 4 13 16 21 21 21 13z m-70 -59 c0 -2 -10 -12
-22 -23 l-23 -19 19 23 c18 21 26 27 26 19z m-60 -50 c0 -2 -19 -21 -42 -42
l-43 -40 40 43 c36 39 45 47 45 39z m-100 -90 c0 -1 -33 -34 -72 -72 l-73 -70
70 73 c64 67 75 77 75 69z m-220 -222 c-41 -41 -77 -75 -79 -75 -3 0 28 34 69
75 41 41 77 75 79 75 3 0 -28 -34 -69 -75z m-100 -108 c0 -2 -15 -16 -32 -33
l-33 -29 29 33 c28 30 36 37 36 29z m-90 -100 c0 -2 -12 -14 -27 -28 l-28 -24
24 28 c23 25 31 32 31 24z m-60 -70 c0 -2 -10 -12 -22 -23 l-23 -19 19 23 c18
21 26 27 26 19z m-50 -60 c0 -2 -10 -12 -22 -23 l-23 -19 19 23 c18 21 26 27
26 19z m-61 -74 c-40 -47 -42 -49 -34 -33 10 19 47 60 53 60 3 0 -5 -12 -19
-27z m-1397 -1685 c24 -38 38 -112 38 -207 0 -101 -9 -134 -41 -151 -84 -46
-144 148 -90 291 33 86 66 109 93 67z m7468 -3920 c0 -6 -6 -5 -15 2 -8 7 -15
14 -15 16 0 2 7 1 15 -2 8 -4 15 -11 15 -16z m547 -2670 c-3 -7 -5 -2 -5 12 0
14 2 19 5 13 2 -7 2 -19 0 -25z m-1712 -1348 c-3 -5 -12 -10 -18 -10 -7 0 -6
4 3 10 19 12 23 12 15 0z"/>
<path d="M33910 13581 c0 -10 19 -25 25 -20 1 2 -3 10 -11 17 -8 7 -14 8 -14
3z"/>
<path d="M22232 5220 c0 -14 2 -19 5 -12 2 6 2 18 0 25 -3 6 -5 1 -5 -13z"/>
<path d="M22305 5070 c3 -5 8 -10 11 -10 2 0 4 5 4 10 0 6 -5 10 -11 10 -5 0
-7 -4 -4 -10z"/>
<path d="M22970 4330 c0 -5 5 -10 11 -10 5 0 7 5 4 10 -3 6 -8 10 -11 10 -2 0
-4 -4 -4 -10z"/>
<path d="M23291 4184 c0 -11 3 -14 6 -6 3 7 2 16 -1 19 -3 4 -6 -2 -5 -13z"/>
<path d="M23448 4113 c7 -3 16 -2 19 1 4 3 -2 6 -13 5 -11 0 -14 -3 -6 -6z"/>
</g>
</svg>
